#N canvas 517 198 1298 1097 12;
#X floatatom 521 124 5 0 0 0 - - - 0;
#X msg 803 158 disconnect;
#X obj 109 36 netreceive -u 8000;
#X obj 87 74 print udp;
#X obj 29 99 metro 1000;
#X obj 29 123 bng 19 250 50 0 empty empty empty 0 -10 0 12 #fcfcfc #000000 #000000;
#X obj 23 49 bng 19 250 50 0 empty empty empty 0 -10 0 12 #fcfcfc #000000 #000000;
#X obj 86 132 tgl 19 0 empty empty empty 0 -10 0 12 #fcfcfc #000000 #000000 0 1;
#X obj 799 335 array;
#X obj 831 381 select;
#X obj 914 370 counter;
#X obj 768 378 if;
#X floatatom 768 402 5 0 0 0 - - - 0;
#X listbox 768 425 20 0 0 0 - - - 0;
#X floatatom 28 240 5 0 0 0 - - - 0;
#X obj 275 274 expr if ($f2 == 1 \, $f1 \, 5) \; if ($f2 == 0 \, $f1 \, 4) \;;
#X obj 211 524 route;
#X obj 583 320 loadbang;
#X obj 827 199 netsend -u;
#X obj 730 243 oscformat;
#X msg 564 166 send /valor1 \$1;
#X obj 549 592 color;
#X msg 723 78 connect 127.0.0.1 8000;
#X connect 0 0 20 0;
#X connect 1 0 18 0;
#X connect 2 0 3 0;
#X connect 4 0 5 0;
#X connect 5 0 7 0;
#X connect 6 0 4 0;
#X connect 7 0 20 0;
#X connect 7 0 15 0;
#X connect 11 0 12 0;
#X connect 12 0 13 0;
#X connect 15 0 14 0;
#X connect 19 0 18 0;
#X connect 20 0 19 0;
#X connect 22 0 18 0;
