#N canvas 457 44 1298 1097 12;
#X msg 912 131 disconnect;
#X obj 731 180 metro 1000;
#X obj 731 204 bng 19 250 50 0 empty empty empty 0 -10 0 12 #fcfcfc #000000 #000000;
#X obj 731 147 bng 19 250 50 0 empty empty empty 0 -10 0 12 #fcfcfc #000000 #000000;
#X obj 731 230 tgl 19 0 empty empty empty 0 -10 0 12 #fcfcfc #000000 #000000 0 1;
#X obj 799 335 array;
#X obj 831 381 select;
#X obj 914 370 counter;
#X obj 768 378 if;
#X floatatom 768 402 5 0 0 0 - - - 0;
#X listbox 768 425 20 0 0 0 - - - 0;
#X floatatom 28 240 5 0 0 0 - - - 0;
#X obj 275 274 expr if ($f2 == 1 \, $f1 \, 5) \; if ($f2 == 0 \, $f1 \, 4) \;;
#X obj 211 524 route;
#X obj 583 320 loadbang;
#X obj 549 592 color;
#X msg 731 258 send /h \$1;
#X msg 828 109 connect localhost 8000;
#X obj 240 673 print;
#X obj 238 624 netreceive -u 8000;
#X obj 830 284 netsend -u;
#X msg 237 580 disconnect;
#X obj 933 286 packOSC;
#X obj 520 722 gem;
#X connect 0 0 20 0;
#X connect 1 0 2 0;
#X connect 2 0 4 0;
#X connect 3 0 1 0;
#X connect 4 0 16 0;
#X connect 4 0 12 0;
#X connect 8 0 9 0;
#X connect 9 0 10 0;
#X connect 12 0 11 0;
#X connect 16 0 20 0;
#X connect 17 0 20 0;
#X connect 19 0 18 0;
#X connect 21 0 19 0;
